<svg width="249" height="64" viewBox="0 0 249 64" fill="none" xmlns="http://www.w3.org/2000/svg">
<path d="M249 0L0 0L0 64L249 64V0Z" fill="#141414"/>
<path fill-rule="evenodd" clip-rule="evenodd" d="M21.3606 21.3332H28.9778C30.8154 21.3332 32.4106 21.5883 33.7633 22.0979C35.1154 22.608 36.2447 23.3339 37.1506 24.2774C38.0565 25.2203 38.7267 26.3415 39.1605 27.6415C39.5944 28.9414 39.8111 30.3945 39.8111 32C39.8111 33.6055 39.5944 35.0585 39.1605 36.3585C38.7267 37.6585 38.0565 38.7797 37.1506 39.7226C36.2447 40.666 35.1154 41.3925 33.7633 41.9021C32.4106 42.4117 30.8154 42.6667 28.9778 42.6667H21.3606V21.3332ZM28.9014 38.6905C30.1009 38.6905 31.0837 38.4932 31.8493 38.098C32.6149 37.7028 33.2143 37.1932 33.6482 36.5687C34.0821 35.9442 34.3818 35.2306 34.5479 34.4279C34.7135 33.6251 34.7966 32.8156 34.7966 32C34.7966 31.1843 34.7135 30.3754 34.5479 29.5721C34.3818 28.7693 34.0821 28.0557 33.6482 27.4312C33.2143 26.8067 32.6149 26.2972 31.8493 25.902C31.0837 25.5068 30.1009 25.3094 28.9014 25.3094H26.2219V38.6905H28.9014Z" fill="white"/>
<path fill-rule="evenodd" clip-rule="evenodd" d="M42.5063 39.5314H45.4543V24.4686H42.5063V21.3332H53.264V24.4686H50.316V39.5314H53.264V42.6667H42.5063V39.5314Z" fill="white"/>
<path fill-rule="evenodd" clip-rule="evenodd" d="M61.3009 36.0903C61.4031 37.2372 61.8942 38.0658 62.7748 38.5753C63.6549 39.0855 64.6821 39.34 65.8563 39.34C67.0047 39.34 67.8915 39.1236 68.5168 38.6903C69.142 38.2569 69.4547 37.6706 69.4547 36.9317C69.4547 36.3453 69.2375 35.8487 68.8036 35.4406C68.3697 35.033 67.6552 34.6888 66.66 34.4085L62.373 33.2616C60.5864 32.7772 59.2208 32.0445 58.2767 31.063C57.3327 30.0819 56.8606 28.801 56.8606 27.2207C56.8606 26.0996 57.0902 25.1371 57.5493 24.3343C58.009 23.5315 58.6214 22.8813 59.387 22.3846C60.1525 21.8874 61.0332 21.5241 62.0283 21.2948C63.0235 21.0655 64.0445 20.9506 65.0907 20.9506C66.2643 20.9506 67.3493 21.0908 68.3445 21.3711C69.3396 21.6519 70.2135 22.0723 70.9668 22.6329C71.7194 23.1935 72.3318 23.901 72.8038 24.7547C73.2759 25.6085 73.5503 26.6091 73.6267 27.7561H68.7272C68.6504 26.6344 68.2294 25.8378 67.4638 25.3663C66.6982 24.8949 65.8052 24.6594 64.7842 24.6594C63.7891 24.6594 63.0297 24.8568 62.5066 25.252C61.9834 25.6466 61.7219 26.1887 61.7219 26.8765C61.7219 27.4377 61.92 27.9153 62.3152 28.3105C62.7109 28.7052 63.4316 29.0432 64.4783 29.3235L68.7654 30.4704C70.4751 30.929 71.8278 31.6364 72.8229 32.5922C73.8181 33.548 74.3159 34.8671 74.3159 36.5494C74.3159 37.7474 74.0673 38.7603 73.5694 39.5889C73.0721 40.4168 72.421 41.0862 71.6173 41.5958C70.8135 42.1059 69.8818 42.4753 68.8227 42.7046C67.7635 42.9339 66.6853 43.0488 65.588 43.0488C62.9084 43.0488 60.7458 42.4495 59.0996 41.2516C57.4539 40.0542 56.5413 38.3337 56.3628 36.0903H61.3009Z" fill="white"/>
<path fill-rule="evenodd" clip-rule="evenodd" d="M97.1505 34.9433C97.0489 36.2433 96.7424 37.397 96.2322 38.4038C95.7215 39.4106 95.0451 40.2576 94.2032 40.946C93.3613 41.6339 92.3723 42.1569 91.2362 42.5134C90.1008 42.8705 88.8822 43.0488 87.5806 43.0488C85.9473 43.0488 84.5121 42.7875 83.2745 42.2651C82.0368 41.7426 80.9968 40.997 80.1549 40.0284C79.3124 39.0597 78.6809 37.8937 78.26 36.5303C77.8384 35.1664 77.628 33.6562 77.628 31.9997C77.628 30.3432 77.8384 28.833 78.26 27.4691C78.6809 26.1057 79.3124 24.9397 80.1549 23.971C80.9968 23.0024 82.0368 22.2568 83.2745 21.7343C84.5121 21.2119 85.9473 20.9506 87.5806 20.9506C88.8822 20.9506 90.1008 21.1289 91.2362 21.486C92.3723 21.8431 93.3613 22.3655 94.2032 23.0534C95.0451 23.7418 95.7215 24.5894 96.2322 25.5962C96.7424 26.6024 97.0489 27.7561 97.1505 29.0561H92.2129C92.136 27.9854 91.7212 27.0677 90.9685 26.3031C90.2158 25.5384 89.1118 25.1561 87.6575 25.1561C86.6624 25.1561 85.839 25.354 85.1884 25.7486C84.5373 26.1439 84.021 26.6663 83.6382 27.3166C83.2554 27.9663 82.9938 28.699 82.8535 29.5146C82.7132 30.3303 82.643 31.1588 82.643 31.9997C82.643 32.8406 82.7132 33.6691 82.8535 34.4848C82.9938 35.3004 83.2554 36.0331 83.6382 36.6834C84.021 37.3331 84.5373 37.8555 85.1884 38.2508C85.839 38.646 86.6624 38.8433 87.6575 38.8433C89.1118 38.8433 90.2158 38.461 90.9685 37.6963C91.7212 36.9317 92.136 36.014 92.2129 34.9433H97.1505Z" fill="white"/>
<path fill-rule="evenodd" clip-rule="evenodd" d="M111.008 38.8433C112.08 38.8433 112.96 38.646 113.65 38.2508C114.338 37.8555 114.88 37.3331 115.276 36.6834C115.672 36.0331 115.946 35.3004 116.099 34.4848C116.252 33.6691 116.329 32.8406 116.329 31.9997C116.329 31.1588 116.252 30.3303 116.099 29.5146C115.946 28.699 115.672 27.9663 115.276 27.3166C114.88 26.6663 114.338 26.1439 113.65 25.7486C112.96 25.354 112.08 25.1561 111.008 25.1561C109.936 25.1561 109.056 25.354 108.367 25.7486C107.678 26.1439 107.135 26.6663 106.74 27.3166C106.344 27.9663 106.07 28.699 105.917 29.5146C105.764 30.3303 105.687 31.1588 105.687 31.9997C105.687 32.8406 105.764 33.6691 105.917 34.4848C106.07 35.3004 106.344 36.0331 106.74 36.6834C107.135 37.3331 107.678 37.8555 108.367 38.2508C109.056 38.646 109.936 38.8433 111.008 38.8433ZM111.008 43.0488C109.273 43.0488 107.761 42.7808 106.472 42.246C105.183 41.7107 104.105 40.9589 103.237 39.9902C102.369 39.0216 101.725 37.8617 101.304 36.5113C100.883 35.1603 100.673 33.6562 100.673 31.9997C100.673 30.3432 100.883 28.8391 101.304 27.4881C101.725 26.1377 102.369 24.9778 103.237 24.0092C104.105 23.041 105.183 22.2887 106.472 21.7534C107.761 21.2186 109.273 20.9506 111.008 20.9506C112.744 20.9506 114.255 21.2186 115.544 21.7534C116.833 22.2887 117.911 23.041 118.779 24.0092C119.646 24.9778 120.291 26.1377 120.712 27.4881C121.133 28.8391 121.344 30.3432 121.344 31.9997C121.344 33.6562 121.133 35.1603 120.712 36.5113C120.291 37.8617 119.646 39.0216 118.779 39.9902C117.911 40.9589 116.833 41.7107 115.544 42.246C114.255 42.7808 112.744 43.0488 111.008 43.0488Z" fill="white"/>
<path fill-rule="evenodd" clip-rule="evenodd" d="M125.511 21.3332H131.444L139.407 36.3585V21.3332L144.077 21.3332V42.6667H138.143L130.181 27.6415V42.6667H125.511V21.3332Z" fill="white"/>
<path fill-rule="evenodd" clip-rule="evenodd" d="M153.761 25.5006H147.598V21.3332L164.785 21.3332V25.5006H158.622V42.6667H153.761V25.5006Z" fill="white"/>
<path fill-rule="evenodd" clip-rule="evenodd" d="M168.308 21.3332L183.62 21.3332V25.4244H173.169V29.7442H181.629V33.8353H173.169V38.5756H183.62V42.6667H168.308V21.3332Z" fill="white"/>
<path fill-rule="evenodd" clip-rule="evenodd" d="M188.367 21.3332H194.3L202.262 36.3585V21.3332L206.932 21.3332V42.6667H200.999L193.037 27.6415V42.6667H188.367V21.3332Z" fill="white"/>
<path fill-rule="evenodd" clip-rule="evenodd" d="M216.616 25.5006H210.453V21.3332L227.641 21.3332V25.5006H221.478V42.6667H216.616V25.5006Z" fill="white"/>
</svg>
